<?xml version="1.0" standalone="no"?>
<!DOCTYPE svg PUBLIC "-//W3C//DTD SVG 20010904//EN"
 "http://www.w3.org/TR/2001/REC-SVG-20010904/DTD/svg10.dtd">
<svg version="1.0" xmlns="http://www.w3.org/2000/svg"
 width="1024.000000pt" height="1024.000000pt" viewBox="0 0 1024.000000 1024.000000"
 preserveAspectRatio="xMidYMid meet">
<metadata>
Created by potrace 1.16, written by Peter Selinger 2001-2019
</metadata>
<g transform="translate(0.000000,1024.000000) scale(0.100000,-0.100000)"
fill="#000000" stroke="none">
<path d="M0 5120 l0 -5120 5120 0 5120 0 0 5120 0 5120 -5120 0 -5120 0 0
-5120z m5090 2765 c0 -24 3 -25 55 -25 52 0 55 -1 55 -25 0 -23 3 -25 50 -25
47 0 50 -2 50 -25 0 -23 3 -25 50 -25 47 0 50 -2 50 -25 0 -16 6 -25 15 -25
10 0 16 -11 17 -32 l1 -33 4 33 c4 28 8 32 34 32 26 0 29 -3 29 -30 0 -16 5
-30 10 -30 6 0 11 -12 11 -27 l2 -28 4 28 c4 24 8 27 44 27 35 0 39 -3 39 -25
0 -20 5 -25 25 -25 20 0 25 -5 25 -25 0 -23 3 -25 50 -25 47 0 50 -2 50 -25 0
-23 3 -25 50 -25 47 0 50 -2 50 -25 0 -14 5 -25 10 -25 6 0 10 -14 10 -31 0
-17 4 -28 10 -24 6 3 10 17 10 31 0 20 5 24 30 24 25 0 30 -4 30 -25 0 -24 3
-25 55 -25 52 0 55 -1 55 -25 0 -18 5 -25 20 -25 15 0 20 -7 21 -27 l2 -28 4
28 c3 21 10 27 29 27 19 0 24 -5 24 -25 0 -20 5 -25 25 -25 21 0 25 -5 25 -30
0 -29 1 -30 50 -30 47 0 50 -2 50 -25 0 -24 3 -25 55 -25 52 0 55 -1 55 -25 0
-14 5 -25 10 -25 6 0 11 -12 11 -27 l2 -28 4 28 c4 23 9 27 39 27 30 0 34 -3
34 -25 0 -23 3 -25 50 -25 47 0 50 -2 50 -25 0 -23 3 -25 50 -25 47 0 50 -2
50 -25 0 -20 5 -25 25 -25 20 0 25 -5 25 -25 0 -24 3 -25 55 -25 52 0 55 -1
55 -25 0 -20 5 -25 25 -25 l25 0 0 -615 0 -615 -25 0 c-20 0 -25 -5 -25 -25 0
-20 -5 -25 -25 -25 -20 0 -25 -5 -25 -25 0 -22 -4 -25 -35 -25 -31 0 -35 3
-36 28 l-2 27 -4 -27 c-2 -16 -11 -28 -19 -28 -9 0 -14 -11 -14 -30 0 -29 -1
-30 -50 -30 -47 0 -50 -2 -50 -25 0 -23 -3 -25 -50 -25 -47 0 -50 -2 -50 -25
0 -23 -3 -25 -50 -25 -47 0 -50 -2 -50 -25 0 -21 -5 -25 -30 -25 -25 0 -30 -4
-30 -25 0 -22 -4 -25 -40 -25 -37 0 -40 2 -41 28 -1 17 -5 8 -12 -25 l-10 -53
-48 0 c-46 0 -49 -2 -49 -25 0 -23 -3 -25 -50 -25 -47 0 -50 -2 -50 -25 0 -24
-3 -25 -55 -25 -54 0 -55 0 -55 -30 0 -25 -4 -30 -25 -30 -20 0 -25 -5 -25
-25 0 -23 -3 -25 -50 -25 -47 0 -50 -2 -50 -25 0 -20 -5 -25 -25 -25 -20 0
-25 5 -26 28 l-2 27 -4 -27 c-3 -20 -10 -28 -24 -28 -14 0 -19 -7 -19 -25 0
-23 -3 -25 -50 -25 -47 0 -50 -2 -50 -25 0 -24 -3 -25 -55 -25 -52 0 -55 -1
-55 -25 0 -23 -3 -25 -50 -25 -47 0 -50 -2 -50 -25 0 -20 -5 -25 -25 -25 -20
0 -25 -5 -25 -25 0 -22 -4 -25 -39 -25 -36 0 -40 3 -43 28 -3 19 -6 9 -12 -30
l-8 -58 -39 0 c-37 0 -39 2 -40 33 -1 23 -4 16 -11 -25 l-10 -58 -54 0 c-51 0
-54 -1 -54 -25 0 -23 -3 -25 -50 -25 -47 0 -50 -2 -50 -25 0 -23 -3 -25 -50
-25 -47 0 -50 -2 -50 -25 0 -20 -5 -25 -25 -25 -20 0 -25 -5 -25 -25 0 -24 -3
-25 -55 -25 -52 0 -55 -1 -55 -25 0 -23 -3 -25 -50 -25 -47 0 -50 -2 -50 -25
0 -23 -3 -25 -50 -25 -47 0 -50 -2 -50 -25 0 -23 -3 -25 -50 -25 -49 0 -50 -1
-50 -30 0 -29 -1 -30 -50 -30 -47 0 -50 -2 -50 -25 0 -21 -5 -25 -30 -25 -25
0 -30 -4 -30 -25 0 -22 -4 -25 -35 -25 -31 0 -35 3 -36 28 l-2 27 -4 -27 c-4
-24 -9 -28 -39 -28 -30 0 -34 -3 -34 -25 l0 -25 -100 0 -100 0 0 25 c0 24 -3
25 -55 25 -52 0 -55 1 -55 25 0 23 -3 25 -50 25 -47 0 -50 2 -50 25 0 14 -4
25 -10 25 -5 0 -10 14 -10 30 0 17 -4 30 -10 30 -5 0 -10 -13 -10 -30 0 -27
-3 -30 -30 -30 -27 0 -30 3 -30 30 0 25 -4 30 -25 30 -20 0 -25 5 -25 25 0 24
-3 25 -55 25 -52 0 -55 1 -55 25 0 23 -3 25 -50 25 -47 0 -50 2 -50 25 0 23
-3 25 -50 25 -47 0 -50 2 -50 25 0 23 -3 25 -50 25 -47 0 -50 2 -50 25 0 16
-6 25 -15 25 -9 0 -16 10 -16 28 l-2 27 -4 -27 c-4 -23 -9 -28 -34 -28 -24 0
-29 4 -29 25 0 21 -5 25 -30 25 -25 0 -30 4 -30 25 0 20 -5 25 -25 25 l-25 0
0 615 0 615 25 0 c20 0 25 5 25 25 0 24 3 25 55 25 52 0 55 1 55 25 0 20 5 25
25 25 21 0 25 5 25 30 0 29 1 30 50 30 47 0 50 2 50 25 0 23 3 25 50 25 47 0
50 2 50 25 0 23 3 25 50 25 47 0 50 2 50 25 0 24 3 25 55 25 52 0 55 1 55 25
0 23 3 25 50 25 47 0 50 2 50 25 0 20 5 25 25 25 20 0 25 5 25 25 0 23 3 25
50 25 47 0 50 2 50 25 0 20 5 25 25 25 21 0 25 5 25 30 0 27 3 30 30 30 l30 0
0 470 0 470 28 1 27 2 -27 4 c-24 4 -28 9 -28 39 l0 34 50 0 c47 0 50 2 50 25
0 23 3 25 50 25 47 0 50 2 50 25 0 23 3 25 50 25 47 0 50 2 50 25 0 24 3 25
55 25 52 0 55 1 55 25 0 20 5 25 25 25 21 0 25 5 25 30 0 28 3 30 35 30 32 0
35 -2 37 -32 l1 -33 4 33 c2 17 8 32 14 32 5 0 9 11 9 25 0 23 3 25 50 25 47
0 50 2 50 25 0 23 3 25 50 25 47 0 50 2 50 25 0 24 3 25 55 25 52 0 55 1 55
25 l0 25 175 0 175 0 0 -25z"/>
<path d="M4703 7785 c0 -8 4 -15 9 -15 4 0 8 7 8 15 0 8 -4 15 -8 15 -5 0 -9
-7 -9 -15z"/>
<path d="M5120 7785 c0 -8 4 -15 10 -15 5 0 7 7 4 15 -4 8 -8 15 -10 15 -2 0
-4 -7 -4 -15z"/>
<path d="M4621 7734 c0 -11 3 -14 6 -6 3 7 2 16 -1 19 -3 4 -6 -2 -5 -13z"/>
<path d="M5215 7741 c-3 -5 -1 -12 5 -16 5 -3 10 1 10 9 0 18 -6 21 -15 7z"/>
<path d="M5303 7686 c1 -11 9 -21 17 -23 10 -3 11 -2 4 4 -6 4 -14 15 -17 23
-5 11 -6 9 -4 -4z"/>
<path d="M5585 7539 c-4 -6 -5 -12 -2 -15 2 -3 7 2 10 11 7 17 1 20 -8 4z"/>
<path d="M4134 7480 c0 -13 4 -16 10 -10 7 7 7 13 0 20 -6 6 -10 3 -10 -10z"/>
<path d="M5780 7431 c0 -6 4 -13 10 -16 6 -3 7 1 4 9 -7 18 -14 21 -14 7z"/>
<path d="M5888 7353 c7 -3 16 -2 19 1 4 3 -2 6 -13 5 -11 0 -14 -3 -6 -6z"/>
<path d="M6247 7183 c-11 -11 -8 -21 9 -27 13 -5 14 -4 6 7 -7 8 -9 17 -5 20
3 4 4 7 1 7 -2 0 -8 -3 -11 -7z"/>
<path d="M5711 7130 c-13 -11 -31 -20 -40 -20 -9 0 -32 -11 -52 -24 -19 -13
-51 -32 -70 -41 -60 -29 -101 -53 -123 -74 -12 -12 -31 -21 -41 -21 -10 0 -37
-12 -59 -27 -23 -14 -52 -34 -66 -43 -14 -9 -43 -21 -66 -28 -22 -6 -49 -21
-59 -32 -10 -11 -24 -20 -31 -20 -7 0 -25 -11 -41 -24 -15 -13 -38 -26 -50
-30 -19 -6 -22 -16 -28 -129 -3 -67 -5 -254 -3 -415 2 -232 6 -294 17 -301 19
-12 80 4 102 28 11 12 29 21 39 21 11 0 34 14 52 30 17 17 38 30 47 30 9 0 28
8 41 17 28 20 163 92 226 122 23 11 45 24 48 30 4 6 26 20 49 31 23 11 69 38
102 59 l60 38 0 419 c0 455 1 449 -54 404z"/>
<path d="M6344 7129 c-3 -6 -2 -15 3 -20 5 -5 9 -1 9 11 0 23 -2 24 -12 9z"/>
<path d="M6647 5593 c-11 -10 -8 -33 4 -33 5 0 7 5 3 11 -3 6 0 15 7 20 8 5 9
9 3 9 -6 0 -14 -3 -17 -7z"/>
<path d="M6084 5279 c-3 -6 -2 -15 3 -20 5 -5 9 -1 9 11 0 23 -2 24 -12 9z"/>
<path d="M5991 5231 c-7 -5 -10 -14 -7 -20 11 -17 22 -13 22 9 0 11 0 20 -1
20 0 0 -6 -4 -14 -9z"/>
<path d="M3943 4145 c0 -9 9 -15 22 -15 13 0 22 6 22 15 0 9 -9 15 -22 15 -13
0 -22 -6 -22 -15z"/>
</g>
</svg>
